<svg width="74" height="24" viewBox="0 0 74 24" fill="none" xmlns="http://www.w3.org/2000/svg">
<g clip-path="url(#clip0_434_5042)">
<rect width="74" height="24" rx="12" fill="#A3B7CD"/>
<path fill-rule="evenodd" clip-rule="evenodd" d="M28.988 11.7999C28.7 12.9159 27.896 14.0199 26.888 14.6199L26.084 13.6599C27.428 12.7839 28.304 11.1759 28.304 8.89586V7.28786H29.66V8.88386C29.66 10.9479 30.38 12.5799 31.676 13.3479L30.872 14.3439C30.188 13.9119 29.276 12.8559 28.988 11.7999ZM66.776 9.53186L66.176 10.6359C64.748 10.4319 62.876 9.56786 62.336 8.34386C61.796 9.56786 60.056 10.4199 58.508 10.6239L57.92 9.53186C59.708 9.35186 61.616 8.37986 61.616 6.77186V6.45986h43.068V6.77186C63.068 8.37986 65.24 9.45986 66.776 9.53186ZM66.056 14.9439C66.056 16.1679 64.7 16.9239 62.336 16.9239C59.972 16.9239 58.604 16.1679 58.604 14.9439C58.604 13.7199 59.972 12.9519 62.324 12.9519C64.7 12.9519 66.056 13.7199 66.056 14.9439ZM60.056 14.9439C60.056 15.4959 60.944 15.8199 62.324 15.8199C63.716 15.8199 64.616 15.4959 64.616 14.9439C64.616 14.4039 63.716 14.0679 62.324 14.0679C60.944 14.0679 60.056 14.4039 60.056 14.9439ZM35.456 6.25586V16.9479H34.124V11.5839H33.236V16.4559H31.928V6.44786H33.236V10.4559H34.124V6.25586H35.456ZM45.572 6.25586V12.4599H44.18V11.1279H42.656V9.99986H44.18V8.82386H42.656V7.70786H44.18V6.25586H45.572ZM42.116 6.78386V11.8239H37.088V6.80786H38.492V8.31986H40.724V6.78386H42.116ZM38.492 10.7079H40.724V9.41186H38.492V10.7079ZM45.584 12.9999V16.9599H44.18V14.1159H38.348V12.9999H45.584ZM56.216 6.25586V16.9479h44.872V11.5599h44.008V16.4559h42.688V6.44786h44.008V10.4439h44.872V6.25586h46.216ZM51.644 7.34786V14.1759H47.372V7.35986H48.764V9.81986h40.252V7.34786h41.644ZM48.764 13.0719h40.252V10.8999H48.764V13.0719ZM67.16 11.3439V12.4599h47.5V11.3439h41.628V9.96386h43.032V11.3439h47.16Z" fill="#222222"/>
<path fill-rule="evenodd" clip-rule="evenodd" d="M-4.60547 18.2168C-4.60547 18.6269 -4.52547 19.033 -4.37004 19.4119C-4.21461 19.7908 -3.98679 20.1351 -3.69959 20.4251C-3.41239 20.7151 -3.07144 20.9452 -2.69619 21.1021C-2.32095 21.2591 -1.91877 21.3399 -1.5126 21.3399C-1.10644 21.3399 -0.704261 21.2591 -0.329017 21.1021C0.046226 20.9452 0.387181 20.7151 0.67438 20.4251C0.961579 20.1351 1.1894 19.7908 1.34483 19.4119C1.50026 19.033 1.58026 18.6269 1.58026 18.2168C1.58026 17.3885 1.2544 16.5942 0.67438 16.0085C0.0943556 15.4228 -0.692327 15.0938 -1.5126 15.0938C-2.33288 15.0938 -3.11957 15.4228 -3.69959 16.0085C-4.27961 16.5942 -4.60547 17.3885 -4.60547 18.2168Z" fill="#222222"/>
<path fill-rule="evenodd" clip-rule="evenodd" d="M14.1855 18.2168C14.1855 18.6269 14.2655 19.033 14.421 19.4119C14.5764 19.7908 14.8042 20.1351 15.0914 20.4251C15.3786 20.7151 15.7196 20.9452 16.0948 21.1021C16.4701 21.2591 16.8723 21.3399 17.2784 21.3399C17.6846 21.3399 18.0868 21.2591 18.462 21.1021C18.8372 20.9452 19.1782 20.7151 19.4654 20.4251C19.7526 20.1351 19.9804 19.7908 20.1358 19.4119C20.2913 19.033 20.3713 18.6269 20.3713 18.2168C20.3713 17.3885 20.0454 16.5942 19.4654 16.0085C18.8854 15.4228 18.0987 15.0938 17.2784 15.0938C16.4581 15.0938 15.6715 15.4228 15.0914 16.0085C14.5114 16.5942 14.1855 17.3885 14.1855 18.2168Z" fill="#222222"/>
<path d="M12.7079 -0.0148641C12.1801 -0.51938 11.4812 -0.80092 10.7545 -0.801758H-8.77044L-8.92589 -0.797445C-9.6512 -0.756057 -10.3334 -0.436163 -10.8327 0.0966937C-11.3319 0.629551 -11.6105 1.33503 -11.6113 2.06859V18.0875L-11.6053 18.1642C-11.5872 18.2743 -11.5309 18.3743 -11.4467 18.4465C-11.3624 18.5186 -11.2555 18.5583 -11.145 18.5584H20.8343L20.9146 18.5515C21.0048 18.5355 21.0884 18.493 21.1549 18.4293C21.2214 18.3657 21.268 18.2837 21.2887 18.1936L21.4108 17.6588L22.6169 13.0394L22.6314 12.9523C22.6399 12.8341 22.6041 12.7168 22.5289 12.6228L20.6959 10.3407L19.8392 5.94114L19.8067 5.75915C19.4907 4.20151 18.4205 3.16825 17.0974 3.16825H13.5971V2.06859L13.5928 1.91161C13.5523 1.17892 13.2356 0.489652 12.7079 -0.0148641Z" fill="#A3B7CD"/>
<path fill-rule="evenodd" clip-rule="evenodd" d="M-11.145 18.0875H20.8342L21.234 16.335H-11.145V18.0875Z" fill="#404041"/>
<path fill-rule="evenodd" clip-rule="evenodd" d="M18.9235 6.11549L18.9209 6.09825C18.7279 4.89077 18.013 4.11108 17.0982 4.11108H9.97887C9.46553 4.11108 9.04785 4.53284 9.04785 5.05119V10.0881H19.6973L18.9235 6.11549Z" fill="white"/>
<path fill-rule="evenodd" clip-rule="evenodd" d="M10.7545 -0.801758C11.4812 -0.80092 12.1801 -0.51938 12.7079 -0.0148641C13.2356 0.489652 13.5523 1.17892 13.5928 1.91161L13.5971 2.06859V3.16825H17.0974C18.4205 3.16825 19.4907 4.20151 19.8067 5.75915L19.8392 5.94114L20.6959 10.3407L22.5289 12.6228C22.6041 12.7168 22.6399 12.8341 22.6314 12.9523L22.6169 13.0394L21.4108 17.6588L21.2887 18.1936C21.268 18.2837 21.2214 18.3657 21.1549 18.4293C21.0884 18.493 21.0048 18.5355 20.9146 18.5515L20.8343 18.5584H-11.145C-11.2555 18.5583 -11.3624 18.5186 -11.4467 18.4465C-11.5309 18.3743 -11.5872 18.2743 -11.6053 18.1642L-11.6113 18.0875V2.06859C-11.6105 1.33503 -11.3319 0.629551 -10.8327 0.0966937C-10.3334 -0.436163 -9.6512 -0.756057 -8.92589 -0.797445L-8.77044 -0.801758H10.7536H10.7545ZM13.738 16.8058H-10.6786V17.6166H13.5373L13.738 16.8058ZM20.6481 16.8058H14.6989L14.4991 17.6166H20.4567L20.5054 17.4329L20.6481 16.8058ZM10.7545 0.140936h4.78336C6.20446 0.608402 6.47778 1.21473 6.51964 1.88488L6.52562 2.06945V15.864H8.11433V5.05019C8.11433 4.05833 8.87964 3.24243 9.84568 3.17343L9.97808 3.16825L10.0046 3.16998L10.0319 3.16825H12.6644V2.06859C12.6639 1.55725 12.4625 1.06699 12.1045 0.705427C11.7464 0.343859 11.2609 0.140531 10.7545 0.140074V0.140936ZM13.2341 11.0315H9.04876V11.5076H9.82347C9.94286 11.5037 10.0591 11.5464 10.1483 11.6267C10.2374 11.707 10.2925 11.8188 10.3023 11.939C10.3121 12.0592 10.2757 12.1786 10.2007 12.2725C10.1257 12.3664 10.0179 12.4276 9.89949 12.4434L9.82347 12.4494H9.04791V15.8649H13.9704L14.7118 12.8721L13.2341 11.0315ZM21.5748 13.3387H15.5574L14.9321 15.8657H20.9146L21.5748 13.3387ZM3.68302 0.140936H-8.76958C-9.77748 0.140936 -10.6043 0.932696 -10.6743 1.93231L-10.6795 2.07031V15.8355h4.59289V2.06859C5.59266 1.5571 5.3914 1.06662 5.0333 0.704869C4.6752 0.343116 4.18956 0.139668 3.68302 0.139211V0.140936ZM16.912 14.0959C17.0338 14.0961 17.1505 14.1452 17.2364 14.2323C17.3224 14.3194 17.3705 14.4374 17.3703 14.5604C17.3701 14.6833 17.3215 14.8011 17.2352 14.8879C17.149 14.9747 17.0321 15.0233 16.9103 15.0231C16.7887 15.0229 16.6721 14.9738 16.5862 14.8868C16.5004 14.7998 16.4523 14.6819 16.4525 14.5591C16.4527 14.4362 16.5013 14.3185 16.5875 14.2318C16.6736 14.1451 16.7904 14.0965 16.912 14.0968V14.0959ZM19.8631 14.0959C19.9849 14.0961 20.1016 14.1452 20.1875 14.2323C20.2734 14.3194 20.3216 14.4374 20.3214 14.5604C20.3211 14.6833 20.2725 14.8011 20.1863 14.8879C20.1 14.9747 19.9832 15.0233 19.8614 15.0231C19.7398 15.0229 19.6232 14.9738 19.5373 14.8868C19.4515 14.7998 19.4034 14.6819 19.4036 14.5591C19.4038 14.4362 19.4523 14.3185 19.5385 14.2318C19.6247 14.1451 19.7415 14.0965 19.8631 14.0968V14.0959ZM20.0493 11.0315H14.435L15.5309 12.3968H21.1452L20.0493 11.0315ZM17.0974 4.11095H12.0981C12.45 4.53011 12.7113 5.07175 12.848 5.70223L12.8933 5.942L13.7004 10.0905H19.6966L18.9227 6.11536L18.9201 6.09983C18.7279 4.89236 18.0122 4.11095 17.0974 4.11095ZM9.97808 4.10577C9.74864 4.10832 9.52804 4.19548 9.35782 4.35084C9.1876 4.5062 9.07951 4.71904 9.05389 4.94928L9.04791 5.05105V10.0897H12.7506L11.9768 6.11536L11.9742 6.09983C11.7906 4.94928 11.1337 4.18684 10.2813 4.11612L10.1515 4.11095H10.0319C10.0131 4.11095 9.99601 4.1075 9.97808 4.10577ZM17.849 6.33702L17.8704 6.41033L18.1693 7.87396C18.1965 7.99051 18.1786 8.11313 18.1193 8.2168C18.06 8.32048 17.9637 8.39738 17.8501 8.43183C17.7366 8.46627 17.6143 8.45566 17.5082 8.40216C17.4021 8.34865 17.3203 8.25629 17.2793 8.14392L17.2554 8.06371L16.9564 6.60007C16.9352 6.48504 16.957 6.36614 17.0177 6.26644C17.0784 6.16675 17.1736 6.09339 17.2848 6.0606C17.3961 6.02782 17.5154 6.03795 17.6197 6.08903C17.7239 6.14011 17.8057 6.22849 17.849 6.33702ZM15.0508 6.33702L15.0722 6.41033L15.3712 7.87396C15.3926 7.98851 15.3713 8.10702 15.3114 8.20665C15.2514 8.30627 15.1571 8.37996 15.0465 8.4135C14.9359 8.44703 14.817 8.43805 14.7126 8.38827C14.6082 8.33849 14.5257 8.25144 14.4811 8.14392L14.4572 8.06371L14.1591 6.60007C14.1335 6.48359 14.1527 6.36164 14.2129 6.25894C14.273 6.15624 14.3696 6.08048 14.483 6.04703C14.5965 6.01357 14.7182 6.02491 14.8237 6.07876C14.9291 6.13261 15.0103 6.22494 15.0508 6.33702Z" fill="#222222"/>
<path fill-rule="evenodd" clip-rule="evenodd" d="M9.77832 18.2168C9.77832 18.6269 9.85832 19.033 10.0138 19.4119C10.1692 19.7908 10.397 20.1351 10.6842 20.4251C10.9714 20.7151 11.3124 20.9452 11.6876 21.1021C12.0628 21.2591 12.465 21.3399 12.8712 21.3399C13.2773 21.3399 13.6795 21.2591 14.0548 21.1021C14.43 20.9452 14.771 20.7151 15.0582 20.4251C15.3454 20.1351 15.5732 19.7908 15.7286 19.4119C15.884 19.033 15.964 18.6269 15.964 18.2168C15.964 17.3885 15.6382 16.5942 15.0582 16.0085C14.4781 15.4228 13.6915 15.0938 12.8712 15.0938C12.0509 15.0938 11.2642 15.4228 10.6842 16.0085C10.1042 16.5942 9.77832 17.3885 9.77832 18.2168Z" fill="#222222"/>
<path fill-rule="evenodd" clip-rule="evenodd" d="M11.7188 18.2169C11.7186 18.3696 11.7483 18.5208 11.8061 18.6619C11.8638 18.803 11.9485 18.9312 12.0554 19.0392C12.1622 19.1473 12.2891 19.233 12.4287 19.2915C12.5684 19.3501 12.7181 19.3803 12.8693 19.3804C13.0205 19.3805 13.1702 19.3505 13.31 19.2922C13.4497 19.2339 13.5767 19.1483 13.6837 19.0405C13.7907 18.9326 13.8756 18.8045 13.9336 18.6635C13.9915 18.5224 14.0214 18.3713 14.0215 18.2186C14.0219 17.9103 13.9009 17.6144 13.6852 17.3961C13.4695 17.1779 13.1768 17.055 12.8714 17.0547C12.5661 17.0543 12.2731 17.1765 12.0569 17.3943C11.8407 17.6121 11.7191 17.9077 11.7188 18.216" fill="#404041"/>
</g>
<defs>
<clipPath id="clip0_434_5042">
<rect width="74" height="24" rx="12" fill="white"/>
</clipPath>
</defs>
</svg>
